<svg width="107" height="116" viewBox="0 0 107 116" fill="none" xmlns="http://www.w3.org/2000/svg">
<path d="M0.919999 2.48C0.919999 1.84 1.2 1.36 1.76 1.04C2.24 0.8 2.8 0.8 3.44 1.04L16.88 6.8C18.96 7.6 20 7.24 20 5.72V3.56C20 1.8 20.8 0.92 22.4 0.92H37.52C38.96 0.92 39.68 1.56 39.68 2.84V19.28C39.68 20.48 39.04 21.08 37.76 21.08H23.24C22.68 21.08 22.12 20.96 21.56 20.72L3.08 8.96C2.36 8.48 1.84 7.8 1.52 6.92C1.12 6.12 0.919999 5.36 0.919999 4.64V2.48ZM62 3.44C62 1.68 62.8 0.8 64.4 0.8H79.64C81.16 0.8 81.92 1.44 81.92 2.72V19.16C81.92 20.36 81.24 20.96 79.88 20.96H64.88C62.96 20.96 62 19.84 62 17.6V3.44ZM62.96 115.615C56.32 115.615 50.28 114.775 44.84 113.095C39.48 111.495 34.84 109.015 30.92 105.655C27 102.375 24 98.1347 21.92 92.9347C19.84 87.8147 18.8 81.7747 18.8 74.8147C18.8 67.8547 19.84 61.7747 21.92 56.5747C24.08 51.4547 27.08 47.2147 30.92 43.8547C34.84 40.5747 39.52 38.0947 44.96 36.4147C50.4 34.8147 56.44 34.0147 63.08 34.0147C71.96 34.0147 79.68 35.4547 86.24 38.3347C92.8 41.2947 97.88 45.7747 101.48 51.7747C105.16 57.8547 107 65.5747 107 74.9347C107 84.2147 105.16 91.8547 101.48 97.8547C97.88 103.855 92.76 108.295 86.12 111.175C79.56 114.135 71.84 115.615 62.96 115.615ZM62.96 53.0947C56.96 53.0947 51.8 53.8547 47.48 55.3747C43.16 56.8947 39.84 59.2547 37.52 62.4547C35.2 65.6547 34.04 69.7747 34.04 74.8147C34.04 80.0147 35.2 84.1747 37.52 87.2947C39.84 90.4947 43.16 92.8147 47.48 94.2547C51.8 95.7747 56.96 96.5347 62.96 96.5347C72 96.5347 79.08 94.8547 84.2 91.4947C89.32 88.1347 91.88 82.6147 91.88 74.9347C91.88 69.8147 90.72 65.6547 88.4 62.4547C86.08 59.2547 82.76 56.8947 78.44 55.3747C74.12 53.8547 68.96 53.0947 62.96 53.0947Z" fill="#1288C5"/>
</svg>
