<svg width="24" height="25" viewBox="0 0 24 25" fill="none" xmlns="http://www.w3.org/2000/svg">
<path d="M8.00586 2.51411C7.45356 2.51411 7.00586 2.96211 7.00586 3.51411C4.79676 3.51411 3.00596 5.30511 3.00586 7.51411V17.5141C3.00586 19.7231 4.79676 21.5141 7.00586 21.5141H17.0059C19.2151 21.5141 21.0059 19.7231 21.0059 17.5141V7.51411C21.0059 5.30511 19.2151 3.51411 17.0059 3.51411C17.0059 2.96211 16.5582 2.51411 16.0059 2.51411C15.4536 2.51411 15.0059 2.96211 15.0059 3.51411H9.00586C9.00586 2.96211 8.55816 2.51411 8.00586 2.51411ZM8.00586 7.51411H16.0059C16.5582 7.51411 17.0059 7.96211 17.0059 8.51411C17.006 9.06611 16.5582 9.51411 16.0059 9.51411H8.00586C7.45356 9.51411 7.00586 9.06611 7.00586 8.51411C7.00586 7.96211 7.45366 7.51411 8.00586 7.51411ZM13.0059 12.5141C13.5582 12.5141 14.0059 12.9621 14.0059 13.5141C14.0059 14.0661 13.5582 14.5141 13.0059 14.5141C12.4536 14.5141 12.0059 14.0661 12.0059 13.5141C12.0059 12.9621 12.4537 12.5141 13.0059 12.5141ZM16.0059 12.5141C16.5582 12.5141 17.0059 12.9621 17.0059 13.5141C17.0059 14.0661 16.5582 14.5141 16.0059 14.5141C15.4536 14.5141 15.0059 14.0661 15.0059 13.5141C15.0059 12.9621 15.4536 12.5141 16.0059 12.5141ZM8.00586 16.5141C8.55816 16.5141 9.00586 16.9621 9.00586 17.5141C9.00586 18.0661 8.55816 18.5141 8.00586 18.5141C7.45356 18.5141 7.00586 18.0661 7.00586 17.5141C7.00586 16.9621 7.45366 16.5141 8.00586 16.5141ZM11.0059 16.5141C11.5582 16.5141 12.0059 16.9621 12.0059 17.5141C12.0059 18.0661 11.5582 18.5141 11.0059 18.5141C10.4536 18.5141 10.0059 18.0661 10.0059 17.5141C10.0059 16.9621 10.4537 16.5141 11.0059 16.5141Z" fill="#262626"/>
</svg>
