<svg width="30" height="30" viewBox="0 0 30 30" fill="none" xmlns="http://www.w3.org/2000/svg">
<path d="M28.9584 16.1848C28.7474 13.817 28.4 13.3559 28.2687 13.1824C27.967 12.7816 27.4841 12.5197 26.9732 12.2449C26.9443 12.2296 26.9194 12.2079 26.9003 12.1813C26.8813 12.1547 26.8687 12.1241 26.8635 12.0918C26.8584 12.0595 26.8608 12.0265 26.8705 11.9953C26.8803 11.9641 26.8972 11.9356 26.9199 11.9121C27.0145 11.8161 27.0872 11.7008 27.133 11.5741C27.1789 11.4474 27.1967 11.3122 27.1853 11.1779C27.1633 10.9398 27.0526 10.7187 26.8751 10.5584C26.6977 10.3981 26.4664 10.3103 26.2273 10.3125H25.3132C25.2741 10.3127 25.2349 10.3153 25.1961 10.3201C25.1694 10.3085 25.1417 10.2993 25.1134 10.2926C24.572 9.14824 23.8308 7.58145 22.2945 6.8168C20.0158 5.68359 15.8181 5.625 14.9978 5.625C14.1775 5.625 9.97985 5.68359 7.70407 6.81504C6.16774 7.57969 5.42653 9.14648 4.88512 10.2908L4.88044 10.3002C4.85343 10.304 4.82692 10.3107 4.80134 10.3201C4.76246 10.3153 4.72333 10.3127 4.68415 10.3125H3.76833C3.5292 10.3103 3.29798 10.3981 3.12053 10.5584C2.94308 10.7187 2.83236 10.9398 2.81032 11.1779C2.79991 11.3119 2.81855 11.4465 2.86497 11.5726C2.91139 11.6987 2.98448 11.8133 3.07927 11.9086C3.10194 11.9321 3.11883 11.9606 3.12862 11.9918C3.1384 12.023 3.1408 12.056 3.13563 12.0883C3.13046 12.1206 3.11786 12.1512 3.09882 12.1778C3.07979 12.2043 3.05484 12.2261 3.02594 12.2414C2.51501 12.518 2.02985 12.7799 1.73044 13.1789C1.59919 13.3547 1.25231 13.8135 1.04079 16.1813C0.923601 17.5137 0.906023 18.893 0.998015 19.7812C1.19079 21.627 1.55231 22.7426 1.56755 22.7889C1.62302 22.9573 1.72514 23.1066 1.86204 23.2193C1.99895 23.3321 2.16502 23.4036 2.34098 23.4258V23.4375C2.34098 23.6861 2.43976 23.9246 2.61557 24.1004C2.79139 24.2762 3.02984 24.375 3.27848 24.375H6.55973C6.80837 24.375 7.04683 24.2762 7.22265 24.1004C7.39846 23.9246 7.49723 23.6861 7.49723 23.4375C8.00173 23.4375 8.3527 23.3473 8.72477 23.2512C9.26195 23.1064 9.81102 23.0101 10.3654 22.9635C12.1531 22.793 13.9308 22.7344 14.9978 22.7344C16.0431 22.7344 17.8994 22.793 19.69 22.9635C20.2466 23.0103 20.7978 23.1069 21.3371 23.2523C21.6933 23.3438 22.0314 23.4281 22.4996 23.4369C22.4996 23.6856 22.5983 23.924 22.7742 24.0998C22.95 24.2756 23.1884 24.3744 23.4371 24.3744H26.7183C26.967 24.3744 27.2054 24.2756 27.3812 24.0998C27.5571 23.924 27.6558 23.6856 27.6558 23.4369V23.4299C27.8322 23.4082 27.9988 23.3368 28.1361 23.224C28.2735 23.1112 28.376 22.9617 28.4316 22.793C28.4468 22.7467 28.8084 21.6311 29.0011 19.7854C29.0931 18.8965 29.0767 17.5195 28.9584 16.1848ZM6.57966 11.0924C7.04841 10.0963 7.58454 8.96895 8.53903 8.49375C9.91833 7.80703 12.7771 7.49766 14.9978 7.49766C17.2185 7.49766 20.0773 7.80469 21.4566 8.49375C22.4111 8.96895 22.9449 10.0969 23.416 11.0924L23.4746 11.2195C23.5088 11.2919 23.524 11.3719 23.5186 11.4518C23.5132 11.5317 23.4874 11.6089 23.4436 11.676C23.3999 11.7431 23.3398 11.7978 23.2689 11.8351C23.198 11.8723 23.1187 11.8908 23.0386 11.8887C21.0916 11.8359 16.99 11.6672 14.9978 11.6672C13.0056 11.6672 8.90407 11.84 6.95407 11.8928C6.87401 11.8949 6.79475 11.8764 6.72385 11.8392C6.65295 11.8019 6.59278 11.7472 6.54906 11.6801C6.50535 11.613 6.47955 11.5358 6.47414 11.4559C6.46872 11.376 6.48387 11.296 6.51813 11.2236C6.53864 11.1803 6.56032 11.1363 6.57966 11.0924ZM7.27868 15.7582C6.27075 15.8795 5.25638 15.9394 4.24118 15.9375C3.62009 15.9375 2.97966 15.7617 2.86071 15.2086C2.77927 14.8365 2.78805 14.6273 2.832 14.417C2.86891 14.2383 2.92751 14.1082 3.22048 14.0625C3.98219 13.9453 4.40817 14.0924 5.65505 14.4598C6.4818 14.7029 7.07829 15.027 7.41813 15.2836C7.58864 15.4102 7.49782 15.7406 7.27868 15.7582ZM20.2502 20.5629C19.4791 20.6508 17.9369 20.6186 15.0154 20.6186C12.0939 20.6186 10.5523 20.6508 9.78122 20.5629C8.98552 20.4744 7.97126 19.7221 8.66384 19.0518C9.12497 18.61 10.2007 18.2795 11.6334 18.0937C13.066 17.908 13.6724 17.8125 15.0095 17.8125C16.3466 17.8125 16.8916 17.8711 18.3857 18.0943C19.8799 18.3176 21.009 18.6521 21.3552 19.0523C21.9869 19.7695 21.0453 20.4697 20.2502 20.5664V20.5629ZM27.1349 15.208C27.0177 15.7635 26.3732 15.9369 25.7545 15.9369C24.7198 15.9372 23.6861 15.8773 22.6584 15.7576C22.4791 15.7406 22.3959 15.426 22.5775 15.283C22.9121 15.0199 23.515 14.7023 24.3406 14.4592C25.5875 14.0918 26.3064 13.9447 26.924 14.0672C27.0746 14.0971 27.1543 14.2588 27.1636 14.3602C27.205 14.6424 27.1952 14.9298 27.1349 15.2086V15.208Z" fill="#262626"/>
</svg>
